<?xml version="1.0" encoding="UTF-8" standalone="no"?>
<svg
   version="1.0"
   width="512.000000pt"
   height="512.000000pt"
   viewBox="0 0 512.000000 512.000000"
   preserveAspectRatio="xMidYMid meet"
   id="svg558"
   xmlns="http://www.w3.org/2000/svg"
   xmlns:svg="http://www.w3.org/2000/svg">
  <defs
     id="defs562" />
  <metadata
     id="metadata480">
Created by potrace 1.16, written by Peter Selinger 2001-2019
</metadata>
  <g
     transform="translate(0.000000,512.000000) scale(0.100000,-0.100000)"
     fill="#000000"
     stroke="none"
     id="g556"
     style="fill:#ffffff">
    <path
       d="M2295 4704 c-200 -22 -393 -80 -590 -178 -198 -100 -311 -182 -475 -346 -201 -201 -333 -411 -424 -676 -100 -293 -122 -648 -50 -848 14 -39 24 -82 23 -96 -9 -88 -2 -115 64 -245 53 -105 66 -124 66 -99 1 18 -21 74 -51 135 -47 96 -51 110 -53 179 0 46 -9 101 -23 143 -46 144 -49 384 -7 604 40 209 161 489 292 673 136 190 357 387 582 515 462 265 1062 285 1595 54 49 -22 92 -37 95 -34 32 33 -310 157 -554 201 -87 15 -404 27 -490 18z"
       id="path482"
       style="fill:#ffffff" />
    <path
       d="M3350 4505 c0 -2 58 -43 129 -89 150 -99 224 -158 340 -270 392 -380 604 -857 628 -1411 9 -229 -31 -456 -124 -693 -71 -181 -110 -405 -84 -475 5 -14 24 -41 41 -61 l32 -35 -34 -21 c-65 -39 -139 -55 -240 -51 -32 1 -37 5 -43 32 -4 17 -18 56 -32 87 -15 33 -20 58 -14 61 35 22 41 183 15 393 l-15 127 30 88 c40 119 55 207 47 276 -10 74 -26 64 -26 -16 l-1 -62 -19 35 c-27 49 -25 59 21 115 60 72 102 167 107 241 4 53 1 64 -20 88 -32 37 -104 49 -212 36 -73 -9 -84 -8 -140 14 -104 41 -192 51 -436 50 -228 0 -366 -15 -529 -59 -79 -21 -83 -15 -54 80 34 111 41 217 18 284 -19 57 -71 117 -110 127 -14 3 -25 10 -25 14 0 22 -88 116 -141 150 -82 53 -167 74 -271 68 -132 -9 -204 -46 -318 -162 -36 -37 -79 -76 -96 -88 -63 -43 -93 -118 -48 -118 12 0 15 -6 10 -22 -17 -64 -18 -130 -1 -203 9 -42 15 -78 13 -81 -3 -2 -31 1 -62 7 -122 22 -158 -27 -164 -223 l-4 -128 -52 0 c-88 0 -173 19 -264 59 -112 50 -156 57 -202 34 -95 -49 -105 -154 -31 -327 42 -99 81 -249 81 -318 0 -50 -11 -75 -55 -128 -44 -52 -51 -70 -72 -168 -19 -94 -13 -116 38 -142 46 -24 46 -23 -7 -134 -34 -71 -42 -122 -24 -156 12 -22 60 -40 107 -40 40 0 42 5 -22 -98 -46 -75 -50 -79 -63 -61 -12 18 -27 19 -248 19 -224 0 -235 -1 -255 -21 -15 -15 -19 -27 -13 -42 4 -12 9 -76 11 -142 l4 -120 97 3 c137 3 245 13 237 20 -4 4 -75 9 -158 12 -213 7 -191 25 33 26 l175 2 3 86 3 86 45 0 c42 0 45 -2 39 -22 -14 -47 -53 -126 -108 -217 -54 -88 -67 -122 -49 -121 12 1 122 187 168 287 82 177 276 446 418 580 121 114 288 199 525 268 181 52 275 66 471 72 254 8 449 -24 617 -102 150 -69 468 -310 654 -495 138 -137 214 -232 370 -460 122 -179 140 -202 146 -197 2 3 -21 44 -51 93 -31 48 -58 101 -61 118 -3 17 -5 81 -3 141 l3 110 309 0 c239 0 310 -3 314 -12 3 -10 -59 -13 -290 -13 -172 0 -299 -4 -308 -10 -10 -6 -11 -10 -2 -10 9 0 12 -27 12 -104 0 -113 7 -169 21 -160 5 3 9 25 9 50 l0 44 285 0 285 0 0 84 c0 65 3 85 15 90 21 8 19 32 -7 56 -21 19 -34 20 -330 20 -376 0 -348 12 -348 -147 l0 -106 -41 59 c-23 32 -83 115 -134 184 -135 183 -134 167 -12 172 67 3 114 10 138 22 23 11 67 18 130 20 64 2 113 10 153 24 68 25 136 67 136 84 0 6 -20 32 -44 58 -29 31 -47 61 -52 86 -11 62 32 271 88 422 142 386 161 662 77 1081 -50 249 -171 532 -321 746 -91 131 -284 338 -408 438 -146 118 -350 242 -350 212z m-1007 -935 c36 -11 88 -38 117 -59 49 -37 100 -95 100 -114 0 -6 -13 8 -29 31 -49 66 -132 117 -244 147 -29 7 -42 14 -31 14 12 1 51 -8 87 -19z m-121 -80 c21 -6 40 -16 44 -22 5 -7 3 -8 -7 -2 -8 5 -48 14 -89 20 -64 10 -69 12 -30 13 25 0 62 -4 82 -9z m439 -157 c9 -10 19 -25 23 -33 4 -8 -1 -4 -12 9 -10 13 -30 32 -43 43 -18 15 -19 17 -4 10 11 -6 27 -18 36 -29z m-191 -37 c50 -19 85 -48 106 -89 39 -74 58 -481 28 -607 -39 -165 -217 -320 -369 -320 -156 1 -323 133 -372 295 -32 106 -19 434 23 574 25 86 76 131 179 157 74 19 346 13 405 -10z m197 -318 c-2 -18 -4 -4 -4 32 0 36 2 50 4 33 2 -18 2 -48 0 -65z m908 -69 c76 -10 145 -29 145 -38 0 -3 -53 -20 -118 -38 -115 -32 -121 -32 -382 -37 -218 -3 -281 -8 -355 -24 -49 -11 -91 -20 -91 -19 -1 1 -4 25 -6 53 l-5 52 96 21 c107 23 223 39 321 45 92 5 312 -3 395 -15z m-1855 0 c57 -12 62 -22 23 -38 -20 -8 -38 -8 -63 -1 -43 12 -60 13 -60 1 0 -5 19 -16 43 -23 l42 -15 8 -79 c4 -43 16 -96 26 -116 l18 -38 -61 0 c-33 0 -78 3 -98 6 l-38 7 0 91 c0 142 28 216 81 216 15 0 51 -5 79 -11z m994 -48 c52 -57 13 -251 -50 -251 -14 0 -15 8 -8 58 5 31 8 81 7 110 -2 53 10 102 25 102 5 0 17 -9 26 -19z m-915 -111 c1 -36 5 -82 10 -103 9 -36 8 -38 -12 -35 -30 4 -46 55 -46 147 -1 57 3 79 17 94 17 19 17 19 23 -9 4 -16 7 -58 8 -94z m2249 94 c49 -34 12 -171 -77 -284 -56 -71 -60 -93 -28 -151 35 -61 34 -98 -3 -211 l-31 -92 17 -111 c21 -140 24 -331 6 -363 l-13 -23 -43 44 c-78 81 -211 125 -342 113 l-72 -7 -17 58 c-33 115 -192 409 -211 390 -3 -3 5 -22 19 -44 38 -60 105 -215 147 -341 21 -62 41 -116 43 -118 3 -3 26 0 51 7 26 6 82 9 127 7 65 -4 91 -11 146 -39 62 -31 71 -40 121 -121 65 -105 77 -159 41 -179 -36 -19 -224 -25 -246 -8 -11 9 -14 10 -9 2 4 -8 2 -13 -4 -13 -7 0 -9 7 -6 16 4 10 -5 35 -19 60 l-25 43 27 -9 c98 -32 133 -39 133 -26 0 8 -32 19 -82 30 -46 10 -87 21 -93 24 -5 4 26 9 69 12 116 7 109 26 -12 34 l-99 7 -122 130 c-68 71 -150 148 -182 170 -36 24 -66 54 -78 77 -40 78 -109 159 -171 200 -77 52 -154 76 -306 97 -66 8 -133 18 -149 21 l-31 5 4 66 c4 58 10 74 48 131 23 35 46 76 49 91 6 27 8 28 120 41 180 21 270 4 337 -64 39 -38 56 -77 84 -195 16 -66 20 -101 13 -118 -8 -21 -7 -23 11 -13 40 21 41 44 9 174 -50 199 -137 266 -345 266 -114 0 -107 -5 -90 55 5 16 23 24 88 38 131 28 238 37 455 37 161 0 212 3 250 16 212 73 440 104 491 68z m-2830 -222 c104 -47 152 -55 454 -68 l156 -6 18 -41 c10 -22 32 -59 49 -81 26 -36 30 -51 33 -123 5 -93 15 -83 -113 -108 -159 -31 -310 -133 -372 -252 -34 -64 -97 -252 -89 -261 4 -3 26 9 51 27 78 56 290 158 403 195 353 114 768 127 1127 35 183 -47 321 -127 465 -269 91 -89 260 -286 224 -260 -76 55 -132 97 -249 187 -177 135 -274 199 -360 239 -250 115 -642 144 -1000 73 -124 -25 -374 -109 -478 -160 -42 -22 -127 -71 -189 -109 -109 -69 -112 -70 -180 -70 -68 0 -68 0 -68 28 0 71 48 271 60 251 10 -16 43 34 38 58 -3 15 -7 12 -22 -12 -9 -16 -14 -21 -10 -10 28 84 34 119 34 209 0 66 -9 144 -25 226 -14 69 -28 156 -32 193 -4 50 -9 65 -17 57 -17 -17 -12 -165 9 -260 14 -60 20 -125 20 -220 0 -127 -2 -140 -32 -225 -37 -104 -69 -270 -59 -308 4 -17 15 -29 31 -33 14 -3 25 -7 25 -8 0 0 -7 -23 -15 -50 -8 -27 -15 -69 -15 -94 l0 -45 -51 5 c-71 7 -86 25 -70 80 7 24 26 67 43 95 42 75 37 111 -19 138 -51 24 -53 39 -18 145 16 48 40 93 65 124 52 62 62 104 49 186 -19 120 -41 205 -75 280 -62 141 -68 218 -22 267 34 37 107 29 226 -25z m912 -367 c23 -8 72 -15 109 -15 72 0 120 17 197 70 25 18 47 30 49 28 2 -2 1 -32 -2 -66 -6 -61 -8 -65 -67 -126 -77 -80 -113 -98 -190 -99 -47 0 -76 7 -126 30 -98 45 -109 61 -118 175 l-7 95 56 -38 c31 -22 76 -46 99 -54z m535 -69 l70 -11 19 -78 c10 -43 17 -79 15 -81 -2 -2 -29 0 -59 5 -30 4 -119 11 -197 15 l-141 7 71 82 c81 92 63 87 222 61z m-715 -31 c0 -25 57 -80 109 -105 55 -25 65 -40 29 -40 -21 0 -222 -47 -278 -65 -22 -7 -22 -6 -16 41 12 84 29 154 40 163 11 9 47 16 94 20 13 0 22 -5 22 -14z m927 -33 c36 -41 99 -152 86 -152 -4 0 -43 8 -85 17 -77 16 -78 17 -78 48 0 17 -6 55 -14 84 l-14 53 37 -7 c24 -4 46 -18 68 -43z m-1108 -49 c-10 -43 -19 -92 -19 -109 0 -17 -6 -36 -12 -41 -18 -14 -80 -34 -86 -28 -9 9 28 129 56 180 21 38 56 72 78 75 1 0 -7 -35 -17 -77z m1271 -29 c51 -49 111 -134 94 -134 -4 0 -33 9 -64 21 -52 19 -59 25 -83 74 -14 29 -40 69 -56 88 -17 19 -31 38 -31 41 0 16 89 -42 140 -90z m-1370 52 c0 -2 -9 -26 -21 -53 -11 -26 -28 -78 -37 -115 l-17 -67 -95 -60 c-52 -32 -96 -56 -98 -51 -5 15 59 159 92 208 40 59 176 165 176 138z m-467 -576 c4 -14 -13 -49 -50 -108 -30 -48 -53 -78 -50 -67 3 11 8 38 12 60 12 75 28 117 49 125 31 13 33 12 39 -10z m-275 -417 c3 -10 -47 -13 -227 -13 -211 0 -244 3 -224 24 4 3 106 5 227 4 165 -2 220 -6 224 -15z m-118 -118 l0 -75 -165 0 -165 0 0 75 0 75 165 0 165 0 0 -75z m3820 5 l0 -70 -270 0 -270 0 0 70 0 70 270 0 270 0 0 -70z"
       id="path484"
       style="fill:#ffffff" />
    <path
       d="M1962 3079 c-20 -6 -41 -23 -52 -42 -23 -38 -14 -45 31 -22 24 13 52 16 113 13 76 -3 81 -2 84 18 2 13 -4 24 -14 28 -32 12 -129 15 -162 5z"
       id="path486"
       style="fill:#ffffff" />
    <path
       d="M2347 3078 c-18 -6 -27 -16 -25 -27 3 -13 18 -16 84 -18 54 -1 93 -7 114 -18 38 -20 47 -14 32 20 -22 48 -131 70 -205 43z"
       id="path488"
       style="fill:#ffffff" />
    <path
       d="M2223 2933 c-8 -13 -13 -61 -14 -120 -1 -120 -8 -147 -37 -151 -20 -3 -22 0 -16 25 7 25 6 27 -9 14 -18 -15 -23 -66 -7 -76 17 -11 107 -18 143 -11 38 7 54 30 36 52 -9 11 -13 11 -26 -1 -16 -17 -23 -18 -40 -7 -9 5 -13 52 -15 152 -3 122 -5 142 -15 123z"
       id="path490"
       style="fill:#ffffff" />
    <path
       d="M1943 2910 c-45 -18 -22 -25 74 -23 54 1 100 2 103 3 3 0 -6 7 -20 15 -28 16 -123 19 -157 5z"
       id="path492"
       style="fill:#ffffff" />
    <path
       d="M2368 2913 c-10 -2 -18 -9 -18 -14 0 -5 42 -9 93 -9 83 1 90 2 73 15 -19 14 -107 19 -148 8z"
       id="path494"
       style="fill:#ffffff" />
    <path
       d="M2410 2781 c0 -9 110 -25 118 -17 8 9 -47 26 -84 26 -19 0 -34 -4 -34 -9z"
       id="path496"
       style="fill:#ffffff" />
    <path
       d="M2346 2572 c-35 -24 -49 -27 -122 -27 -70 0 -87 3 -114 23 -19 15 -38 21 -50 17 -34 -11 -22 -29 37 -55 95 -41 211 -32 285 22 14 10 20 9 36 -5 23 -21 32 -22 32 -3 0 14 -46 57 -59 55 -3 0 -24 -12 -45 -27z"
       id="path498"
       style="fill:#ffffff" />
    <path
       d="M2190 2470 c0 -6 26 -10 59 -10 33 0 63 5 66 10 4 6 -18 10 -59 10 -37 0 -66 -4 -66 -10z"
       id="path500"
       style="fill:#ffffff" />
    <path
       d="M2679 2819 c-9 -17 -8 -23 2 -30 17 -10 29 -2 29 21 0 28 -17 33 -31 9z"
       id="path502"
       style="fill:#ffffff" />
    <path
       d="M1762 2809 c1 -12 9 -24 16 -27 9 -3 13 3 10 19 -1 12 -9 24 -16 27 -9 3 -13 -3 -10 -19z"
       id="path504"
       style="fill:#ffffff" />
    <path
       d="M3840 2781 c22 -12 110 -22 110 -12 0 14 -28 21 -78 21 -31 -1 -42 -4 -32 -9z"
       id="path506"
       style="fill:#ffffff" />
    <path
       d="M3840 2654 c-89 -81 -119 -197 -120 -464 0 -126 -12 -269 -26 -304 -5 -14 -4 -17 5 -12 26 16 33 68 42 293 5 128 14 254 19 280 16 70 56 142 108 196 56 57 34 67 -28 11z"
       id="path508"
       style="fill:#ffffff" />
    <path
       d="M3792 2428 c-21 -67 -23 -94 -23 -278 -1 -165 2 -194 19 -232 10 -24 26 -49 34 -56 14 -11 15 16 11 260 -4 283 -8 338 -23 338 -5 0 -13 -15 -18 -32z"
       id="path510"
       style="fill:#ffffff" />
    <path
       d="M3510 1911 c0 -23 67 -72 119 -86 31 -8 89 -28 129 -44 39 -16 72 -25 72 -21 0 23 -118 77 -207 95 -17 3 -50 20 -72 36 -23 16 -41 25 -41 20z"
       id="path512"
       style="fill:#ffffff" />
    <path
       d="M1272 2532 c-8 -6 30 -11 105 -15 65 -4 128 -10 141 -13 26 -7 30 11 5 21 -29 11 -237 17 -251 7z"
       id="path514"
       style="fill:#ffffff" />
    <path
       d="M1210 2494 c0 -3 27 -40 60 -82 33 -43 60 -86 60 -96 0 -10 -9 -34 -21 -52 -24 -40 -10 -46 20 -8 32 40 27 85 -15 141 -61 81 -104 121 -104 97z"
       id="path516"
       style="fill:#ffffff" />
    <path
       d="M1215 1661 c-22 -11 -32 -20 -23 -20 22 -1 68 20 68 31 0 10 2 11 -45 -11z"
       id="path518"
       style="fill:#ffffff" />
    <path
       d="M4290 1000 c0 -24 110 -26 118 -2 3 9 -13 12 -57 12 -34 0 -61 -4 -61 -10z"
       id="path520"
       style="fill:#ffffff" />
    <path
       d="M3255 4171 c-3 -6 0 -13 7 -15 119 -35 175 -80 224 -182 33 -68 54 -92 54 -61 0 29 -62 139 -99 176 -60 60 -169 108 -186 82z"
       id="path522"
       style="fill:#ffffff" />
    <path
       d="M2390 4139 c-156 -9 -310 -32 -454 -68 -141 -36 -280 -92 -284 -114 -3 -14 9 -12 70 14 233 96 506 143 836 143 111 0 202 4 202 8 0 5 -6 10 -12 12 -28 9 -240 12 -358 5z"
       id="path524"
       style="fill:#ffffff" />
    <path
       d="M3020 4139 c-19 -5 -50 -8 -69 -7 -20 2 -36 -2 -39 -10 -3 -9 12 -12 55 -11 72 2 117 11 115 24 -1 14 -20 15 -62 4z"
       id="path526"
       style="fill:#ffffff" />
    <path
       d="M1482 3920 c-64 -43 -215 -196 -245 -248 -32 -56 -1 -43 49 21 69 87 159 173 227 214 31 20 57 40 57 44 0 18 -30 8 -88 -31z"
       id="path528"
       style="fill:#ffffff" />
    <path
       d="M3675 3803 c-39 -20 -38 -20 -30 -32 4 -8 15 -6 35 4 61 32 106 12 144 -63 32 -63 54 -157 64 -275 5 -54 14 -103 21 -110 28 -28 -1 239 -38 346 -44 127 -115 173 -196 130z"
       id="path530"
       style="fill:#ffffff" />
    <path
       d="M2246 1709 c-146 -21 -346 -100 -425 -167 -51 -42 -24 -46 39 -5 250 160 588 196 872 93 93 -34 214 -101 302 -167 64 -49 86 -60 86 -45 0 12 -64 64 -145 119 -219 148 -478 209 -729 172z"
       id="path532"
       style="fill:#ffffff" />
    <path
       d="M2281 1599 c-81 -12 -138 -36 -124 -50 7 -7 17 -8 29 -1 57 30 261 39 368 15 39 -8 31 18 -10 29 -50 13 -196 17 -263 7z"
       id="path534"
       style="fill:#ffffff" />
    <path
       d="M620 1471 c-30 -29 -58 -108 -63 -173 -3 -56 17 -46 29 14 26 129 49 161 114 160 53 -1 100 -31 130 -84 30 -54 42 -27 12 30 -25 49 -83 82 -145 82 -40 0 -54 -5 -77 -29z"
       id="path536"
       style="fill:#ffffff" />
    <path
       d="M1393 1283 c-20 -8 -93 -104 -93 -122 1 -9 25 10 60 49 68 75 75 91 33 73z"
       id="path538"
       style="fill:#ffffff" />
    <path
       d="M2752 1219 c2 -6 28 -19 58 -29 30 -9 114 -46 185 -83 126 -64 234 -97 270 -84 27 11 16 27 -17 27 -55 0 -107 19 -233 82 -165 83 -274 119 -263 87z"
       id="path540"
       style="fill:#ffffff" />
    <path
       d="M1861 1169 c-128 -33 -281 -115 -544 -292 -136 -92 -252 -167 -257 -167 -6 0 -10 -7 -10 -15 0 -8 2 -15 5 -15 18 0 112 58 313 193 311 209 443 271 629 292 35 4 60 11 57 16 -9 15 -115 9 -193 -12z"
       id="path542"
       style="fill:#ffffff" />
    <path
       d="M2152 940 c-86 -24 -212 -88 -294 -150 -62 -46 -82 -70 -59 -70 6 0 44 24 86 54 89 65 176 107 280 138 41 12 74 27 72 32 -5 16 -19 15 -85 -4z"
       id="path544"
       style="fill:#ffffff" />
    <path
       d="M2805 871 c-38 -11 -88 -27 -110 -36 -59 -25 -165 -97 -165 -112 0 -18 6 -17 53 16 126 86 251 123 412 123 105 0 133 -5 269 -49 13 -4 17 -2 14 8 -2 8 -31 25 -64 38 -83 35 -303 41 -409 12z"
       id="path546"
       style="fill:#ffffff" />
    <path
       d="M4100 870 c0 -6 96 -10 269 -10 169 0 272 4 276 10 4 7 -88 10 -269 10 -177 0 -276 -4 -276 -10z"
       id="path548"
       style="fill:#ffffff" />
    <path
       d="M3610 833 c1 -5 31 -27 69 -50 37 -23 114 -81 170 -128 56 -48 107 -85 114 -82 12 4 -4 20 -108 112 -116 102 -246 181 -245 148z"
       id="path550"
       style="fill:#ffffff" />
    <path
       d="M4143 833 c-45 -17 14 -23 247 -23 224 0 260 2 260 15 0 13 -34 15 -247 14 -137 0 -254 -3 -260 -6z"
       id="path552"
       style="fill:#ffffff" />
    <path
       d="M4140 780 c0 -6 62 -10 165 -10 103 0 165 4 165 10 0 6 -62 10 -165 10 -103 0 -165 -4 -165 -10z"
       id="path554"
       style="fill:#ffffff" />
  </g>
</svg>
