<?xml version="1.0" encoding="UTF-8" standalone="no"?>
<svg
   version="1.0"
   width="512.000000pt"
   height="512.000000pt"
   viewBox="0 0 512.000000 512.000000"
   preserveAspectRatio="xMidYMid meet"
   id="svg212"
   xmlns="http://www.w3.org/2000/svg"
   xmlns:svg="http://www.w3.org/2000/svg">
  <defs
     id="defs216" />
  <metadata
     id="metadata132">
Created by potrace 1.16, written by Peter Selinger 2001-2019
</metadata>
  <g
     transform="translate(0.000000,512.000000) scale(0.100000,-0.100000)"
     fill="#000000"
     stroke="none"
     id="g210"
     style="fill:#ffffff">
    <path
       d="M2720 4770 c-14 -4 -42 -5 -62 -3 -33 5 -39 2 -56 -26 -13 -21 -22 -27 -29 -20 -21 21 -67 6 -84 -27 -15 -30 -17 -31 -42 -18 -43 23 -97 -16 -97 -71 0 -10 -9 -12 -33 -8 -29 4 -37 1 -56 -23 -17 -21 -21 -38 -18 -60 5 -28 3 -30 -17 -27 -43 9 -78 -54 -60 -106 8 -22 5 -29 -16 -47 -23 -20 -24 -25 -14 -62 8 -30 8 -44 -3 -58 -17 -24 -17 -59 2 -74 12 -10 12 -15 -1 -35 -11 -18 -13 -29 -5 -43 7 -13 7 -22 -1 -30 -16 -16 -1 -60 25 -74 15 -9 22 -22 22 -43 0 -19 7 -33 20 -40 14 -7 19 -18 17 -38 -2 -16 0 -36 4 -45 4 -10 6 -21 5 -25 -1 -5 8 -11 19 -14 12 -3 19 -11 16 -19 -6 -16 31 -64 49 -64 9 0 12 -6 9 -15 -4 -8 7 -27 25 -46 27 -26 37 -30 71 -27 l40 4 0 -47 c0 -68 -11 -110 -29 -115 -9 -3 -34 -14 -56 -24 -22 -10 -98 -42 -170 -71 -279 -111 -380 -181 -444 -307 -42 -82 -77 -213 -95 -347 -8 -60 -26 -163 -41 -228 -32 -152 -75 -431 -75 -496 0 -44 -5 -55 -39 -95 -36 -42 -51 -76 -78 -183 -7 -28 -27 -45 -121 -107 -91 -60 -136 -82 -224 -111 -62 -20 -124 -45 -139 -56 -15 -10 -30 -19 -33 -19 -4 0 -34 22 -66 50 -33 27 -77 54 -98 60 -253 69 -293 74 -304 32 -13 -50 24 -82 126 -109 60 -16 72 -23 93 -56 l23 -37 -25 -10 c-34 -13 -87 -13 -121 1 -16 5 -58 41 -94 79 -71 74 -103 89 -147 68 -21 -10 -29 -21 -31 -46 -4 -42 41 -140 98 -216 37 -49 50 -58 99 -72 31 -9 71 -26 90 -37 28 -17 50 -20 128 -20 l93 1 -24 -29 c-34 -40 -66 -131 -66 -188 0 -110 53 -203 170 -298 113 -91 330 -201 480 -242 l65 -18 -65 -7 c-36 -3 -182 -8 -325 -12 -483 -12 -478 -19 20 -29 837 -18 3552 -9 3532 11 -3 3 -765 33 -862 34 -33 1 -18 8 80 36 259 76 421 162 550 289 98 97 125 149 132 255 4 69 2 80 -26 135 -16 32 -29 60 -28 60 1 0 47 10 102 22 110 22 205 56 216 75 4 7 30 44 57 81 47 63 72 128 72 186 0 32 -25 44 -77 36 -38 -5 -56 -16 -90 -50 -24 -23 -43 -51 -43 -61 0 -19 -55 -64 -78 -64 -6 0 -34 5 -61 11 l-50 10 17 35 c17 36 23 39 107 48 59 7 99 33 103 68 6 47 -16 53 -140 39 -147 -17 -196 -33 -250 -80 l-45 -40 -52 30 c-29 17 -70 37 -90 44 -20 7 -79 41 -131 75 -111 72 -154 132 -151 209 2 35 -5 54 -39 107 -77 117 -97 210 -145 687 -52 512 -71 542 -452 730 -92 45 -192 92 -220 104 l-53 22 0 86 c0 82 1 86 20 80 28 -9 58 3 65 25 3 10 19 22 37 25 21 5 34 16 41 36 7 17 23 32 39 38 28 10 54 54 42 72 -3 5 -15 9 -27 9 -16 0 -10 6 20 19 43 20 59 47 48 81 -5 15 -2 20 12 20 39 0 57 46 29 69 -13 11 -10 17 17 41 29 25 30 30 19 55 -11 23 -9 30 8 52 27 35 25 69 -6 100 -25 25 -25 25 -5 40 38 26 20 93 -25 93 -24 0 -24 1 -10 22 23 33 20 53 -15 93 -22 24 -40 35 -59 35 -27 0 -40 15 -40 47 0 8 -11 28 -25 45 -14 16 -25 40 -25 53 0 23 -41 65 -64 65 -6 0 -23 -6 -38 -14 -25 -13 -27 -13 -32 10 -10 38 -49 51 -91 31 -35 -17 -35 -17 -35 8 0 13 -10 31 -22 39 -24 17 -31 18 -68 6z m54 -19 c3 -5 -7 -11 -23 -14 -17 -4 -31 -14 -34 -24 -4 -14 -5 -13 -6 5 -1 28 50 55 63 33z m-106 -22 c3 -11 2 -12 -6 0 -8 10 -13 8 -26 -10 -16 -23 -16 -23 -16 -2 0 32 39 43 48 12z m-127 -43 c-27 -29 -24 -44 14 -71 45 -31 60 -68 41 -105 -18 -38 -7 -38 33 -1 31 29 44 31 34 4 -7 -18 -46 -34 -95 -39 -51 -5 -83 22 -83 72 0 40 -21 62 -50 50 -14 -5 -15 -9 -5 -21 9 -11 9 -15 1 -15 -18 0 -25 29 -11 45 15 18 51 20 68 3 7 -7 12 -29 12 -49 0 -56 46 -89 78 -57 23 23 13 59 -25 94 -20 19 -39 46 -40 60 -4 29 12 54 35 54 12 0 11 -5 -7 -24z m249 20 c0 -11 -19 -15 -25 -6 -3 5 1 10 9 10 9 0 16 -2 16 -4z m114 -15 c3 -4 -8 -8 -24 -7 -17 1 -30 4 -30 9 0 10 48 9 54 -2z m-229 -21 c10 -16 -5 -50 -23 -50 -13 0 -13 2 4 14 15 12 17 17 6 28 -18 18 -47 -2 -47 -32 0 -18 8 -26 32 -32 49 -13 67 -46 53 -97 -12 -45 -42 -71 -80 -70 -26 1 -22 4 21 13 27 6 49 41 49 80 0 25 -23 50 -58 60 -34 11 -47 42 -27 72 16 25 58 33 70 14z m163 -2 c15 -15 15 -45 0 -54 -7 -4 -8 -3 -4 5 4 6 0 23 -8 36 -17 26 -9 34 12 13z m-54 -4 c9 -3 16 -12 16 -20 0 -11 -4 -12 -19 -2 -31 19 -75 -5 -65 -35 15 -48 15 -51 0 -27 -20 33 -20 42 4 68 21 23 37 26 64 16z m-372 -11 c-7 -3 -18 -16 -23 -30 -5 -14 -12 -23 -16 -20 -8 9 25 57 40 56 9 0 8 -2 -1 -6z m622 -9 c9 -8 16 -26 16 -39 0 -27 -18 -80 -25 -73 -3 2 1 19 7 36 14 38 5 60 -33 79 -23 12 -23 13 -2 13 12 0 29 -7 37 -16z m-554 2 c0 -2 -11 -6 -25 -8 -13 -3 -22 -1 -19 3 5 9 44 13 44 5z m465 -26 c21 -24 24 -72 5 -94 -21 -26 -30 -18 -13 12 19 33 12 62 -17 69 -21 5 -25 15 -13 26 10 11 19 8 38 -13z m64 -39 c-2 -6 -10 2 -17 17 -11 25 -11 25 4 10 9 -9 15 -21 13 -27z m-111 -9 c21 -28 13 -33 -17 -11 -29 21 -65 22 -119 2 -15 -6 -15 -5 -3 10 7 9 20 17 28 17 8 0 12 4 9 9 -10 15 89 -10 102 -27z m-498 -12 c11 -7 6 -10 -21 -10 -42 0 -69 -18 -72 -47 -1 -26 -17 -20 -17 6 0 22 19 40 57 51 37 11 36 11 53 0z m684 -9 c4 -5 -3 -7 -14 -4 -23 6 -26 13 -6 13 8 0 17 -4 20 -9z m-614 -21 c0 -5 -14 -10 -30 -10 -46 0 -80 -39 -80 -90 0 -22 -4 -40 -10 -40 -15 0 -12 48 6 86 9 19 28 41 43 49 30 17 71 19 71 5z m346 -15 c5 -12 15 -14 39 -9 33 6 105 -13 105 -28 0 -12 -13 -10 -48 7 -39 20 -74 11 -101 -26 -33 -44 -91 -35 -91 15 0 45 81 80 96 41z m216 -31 c8 -17 8 -30 0 -46 -10 -22 -11 -21 -11 9 -1 21 -8 37 -21 45 -26 17 -26 28 1 21 11 -3 26 -16 31 -29z m46 24 c7 -7 11 -26 11 -42 -2 -31 -2 -31 -6 -4 -2 15 -14 35 -26 43 -15 11 -17 15 -6 15 8 0 20 -5 27 -12z m-597 -44 l24 -27 -27 17 c-16 11 -35 15 -47 11 -27 -8 -38 -52 -21 -79 12 -19 12 -20 -3 -7 -21 17 -22 75 -1 95 23 23 47 20 75 -10z m-278 -20 c-14 -21 -15 -31 -5 -56 9 -25 9 -28 -4 -18 -19 17 -18 59 3 82 23 26 26 22 6 -8z m112 2 c-30 -24 -43 -27 -30 -6 6 10 39 27 55 29 3 1 -8 -10 -25 -23z m680 -26 c-21 -23 -78 -43 -102 -37 -11 3 -8 5 10 6 47 2 24 41 -24 41 -34 0 -45 -15 -22 -29 10 -6 13 -11 7 -11 -6 0 -17 7 -24 15 -10 12 -10 18 0 30 17 20 36 19 77 -6 31 -20 35 -20 58 -5 14 9 25 22 26 29 0 9 2 8 6 -1 3 -7 -3 -22 -12 -32z m172 0 c2 -21 1 -22 -5 -6 -5 11 -17 23 -28 28 -16 6 -15 7 6 5 19 -1 26 -8 27 -27z m-895 -24 c13 -3 32 -7 43 -9 11 -3 5 -5 -14 -6 -37 -1 -71 22 -70 48 0 11 3 8 9 -6 5 -12 19 -25 32 -27z m938 -21 c-7 -8 -17 -12 -22 -9 -6 4 -6 10 1 17 6 6 11 22 12 37 l1 25 10 -28 c7 -20 7 -32 -2 -42z m-665 45 c23 0 27 -3 15 -10 -8 -6 -27 -7 -42 -4 -39 8 -68 -4 -68 -28 0 -17 5 -20 30 -16 19 3 27 1 21 -5 -14 -14 -53 -4 -65 16 -9 15 -6 22 13 38 15 12 33 18 45 15 12 -3 35 -6 51 -6z m236 -16 c16 3 29 2 29 -2 0 -5 18 -18 40 -31 22 -12 43 -28 47 -34 5 -7 20 -20 35 -29 19 -13 29 -31 38 -70 28 -134 20 -470 -13 -535 -17 -31 -64 -69 -75 -59 -3 4 0 41 7 84 19 113 19 111 -19 140 l-35 26 24 -27 c28 -31 26 -31 -34 -16 -40 10 -43 13 -34 31 10 19 3 36 -27 63 -16 14 -25 138 -13 174 17 48 88 64 156 36 49 -21 55 -10 15 26 -27 24 -41 29 -85 29 -62 0 -77 -10 -102 -67 -15 -36 -17 -58 -11 -143 6 -94 5 -100 -15 -110 -16 -9 -26 -8 -43 4 -16 10 -26 12 -34 4 -14 -14 -33 -1 -25 18 3 9 13 14 23 11 15 -4 18 5 24 56 10 100 7 136 -12 155 -10 10 -16 24 -14 30 8 26 -20 42 -73 42 -43 0 -60 -5 -84 -26 -45 -37 -41 -59 5 -32 28 16 45 19 82 14 71 -9 85 -32 80 -130 -2 -52 -8 -81 -16 -84 -7 -2 -20 -18 -28 -35 -15 -28 -15 -32 -1 -42 14 -10 11 -14 -19 -28 -44 -21 -58 -21 -50 -1 5 14 4 15 -9 4 -8 -7 -22 -9 -31 -6 -11 4 -15 2 -11 -7 12 -32 38 -168 35 -184 -3 -15 -9 -12 -41 17 -45 42 -53 79 -63 273 -7 138 2 223 33 325 11 34 22 52 33 52 8 0 39 18 69 40 40 31 62 40 92 40 21 0 44 6 51 13 10 11 17 11 41 -1 16 -8 41 -12 58 -8z m334 -19 c18 -17 25 -34 24 -62 -1 -39 -3 -38 -13 9 -9 38 -32 58 -70 58 -33 0 -76 -30 -76 -54 0 -45 92 -62 98 -18 3 18 -1 22 -25 22 -24 1 -25 2 -11 11 23 13 58 -5 58 -29 0 -27 -21 -42 -59 -42 -65 0 -93 56 -48 97 43 40 88 43 122 8z m-708 -37 c35 -29 -2 -108 -50 -108 -35 0 -39 -10 -17 -38 11 -13 20 -32 20 -42 0 -20 -37 -70 -51 -70 -5 0 0 9 11 20 25 25 25 50 0 98 l-20 37 22 3 c72 9 105 47 72 83 -26 29 -68 22 -72 -12 -2 -18 3 -29 20 -37 22 -10 22 -11 3 -11 -45 -2 -59 45 -24 80 21 21 59 20 86 -3z m768 -4 c9 -15 12 -23 6 -20 -11 7 -35 46 -28 46 3 0 12 -12 22 -26z m-959 -23 c-11 -20 -12 -32 -5 -36 19 -12 39 4 40 32 l1 28 13 -30 c8 -17 12 -44 8 -62 -4 -24 1 -39 16 -59 26 -34 27 -60 1 -76 -22 -14 -26 -48 -8 -66 8 -8 8 -15 -2 -27 -28 -34 -80 -5 -79 43 0 25 1 24 12 -8 9 -25 19 -36 36 -38 20 -3 22 -1 16 15 -19 43 -17 71 4 85 27 16 27 50 0 73 -16 16 -19 26 -14 60 6 33 5 38 -6 28 -18 -18 -56 -16 -63 2 -3 8 -2 15 2 15 4 0 13 14 20 32 6 17 14 29 18 26 3 -3 -2 -20 -10 -37z m-54 -40 c2 -17 1 -28 -4 -25 -8 5 -12 54 -4 54 2 0 6 -13 8 -29z m1078 5 c0 -17 -28 -41 -37 -32 -3 3 -1 6 5 6 7 0 12 9 12 20 0 11 5 20 10 20 6 0 10 -6 10 -14z m37 -18 c-3 -7 -5 -2 -5 12 0 14 2 19 5 13 2 -7 2 -19 0 -25z m-212 -56 c23 -14 30 -26 31 -53 1 -19 5 -44 9 -56 11 -34 -26 -49 -57 -23 l-23 20 28 -10 c22 -8 29 -7 33 5 4 8 1 21 -5 29 -6 7 -8 26 -5 42 5 25 2 30 -25 41 -23 8 -31 17 -30 35 0 19 2 20 7 5 4 -10 21 -26 37 -35z m89 32 c32 -31 14 -85 -28 -83 -15 0 -16 2 -6 6 27 10 40 34 29 54 -7 14 -21 19 -52 19 -31 0 -38 3 -27 10 23 15 67 12 84 -6z m-954 -28 c0 -40 11 -56 39 -56 21 -1 23 -2 9 -10 -9 -6 -23 -8 -31 -4 -27 10 -51 94 -27 94 6 0 10 -11 10 -24z m1030 -51 c0 -12 -7 -28 -15 -35 -12 -10 -13 -6 -8 23 3 19 0 45 -6 58 l-12 24 20 -24 c12 -13 21 -33 21 -46z m-1060 4 c0 -11 -4 -17 -10 -14 -5 3 -10 15 -10 26 0 11 5 17 10 14 6 -3 10 -15 10 -26z m889 -48 c0 -10 -4 -7 -11 9 l-11 25 -7 -25 c-7 -21 -8 -19 -7 13 2 38 2 38 20 16 9 -12 17 -29 16 -38z m207 -6 c-9 -14 -21 -25 -26 -25 -6 0 -1 9 10 20 11 11 21 30 21 43 1 17 2 18 6 4 3 -10 -3 -29 -11 -42z m-112 15 c39 -15 53 -53 31 -86 -23 -36 -5 -54 24 -23 11 13 21 18 21 11 0 -6 -11 -19 -26 -28 -35 -24 -50 -7 -33 39 16 44 7 64 -33 82 -37 16 -23 20 16 5z m-983 -53 c-13 -13 -15 1 -4 30 7 17 8 17 11 -1 2 -10 -1 -23 -7 -29z m974 -5 c-3 -3 -11 0 -18 7 -9 10 -8 11 6 5 10 -3 15 -9 12 -12z m-795 -12 c0 -6 -11 -8 -27 -4 -40 10 -41 14 -5 14 18 0 32 -5 32 -10z m-197 -50 c-3 -12 -8 -19 -11 -16 -5 6 5 36 12 36 2 0 2 -9 -1 -20z m947 -27 c0 -36 -28 -134 -45 -157 -18 -24 -35 -12 -35 26 0 27 2 29 17 17 9 -8 14 -9 10 -2 -4 6 -1 35 7 65 10 36 15 44 15 26 1 -15 -3 -38 -9 -53 -5 -14 -6 -24 -1 -21 13 9 34 93 28 116 -3 11 -1 18 4 14 5 -3 9 -17 9 -31z m-754 -94 c10 -19 23 -37 28 -40 5 -4 6 -15 2 -25 -6 -17 -8 -17 -25 2 -23 24 -51 107 -50 148 0 30 1 29 13 -10 7 -22 21 -56 32 -75z m-151 81 c-3 -5 -12 -10 -18 -10 -7 0 -6 4 3 10 19 12 23 12 15 0z m941 -38 c-15 -30 -15 -31 10 -50 32 -23 26 -62 -9 -62 -20 1 -20 2 -4 11 22 13 22 28 -2 53 -19 20 -19 23 -4 54 9 18 18 31 20 28 3 -2 -3 -18 -11 -34z m-917 7 c-13 -25 3 -41 30 -32 13 5 13 3 4 -7 -25 -27 -67 16 -43 45 18 22 23 18 9 -6z m145 -6 c4 -16 9 -37 12 -48 3 -15 1 -14 -9 5 -21 37 -30 70 -19 70 6 0 13 -12 16 -27z m849 2 c4 -8 2 -17 -3 -20 -6 -4 -10 3 -10 14 0 25 6 27 13 6z m-436 -31 c-12 -12 -37 5 -30 21 5 15 7 15 21 1 9 -9 13 -18 9 -22z m-490 -56 c-3 -7 -5 -2 -5 12 0 14 2 19 5 13 2 -7 2 -19 0 -25z m-27 -23 c10 -12 10 -15 -4 -15 -9 0 -16 7 -16 15 0 8 2 15 4 15 2 0 9 -7 16 -15z m528 -20 c-3 -3 -52 -8 -109 -10 -64 -2 -96 0 -84 5 21 9 202 14 193 5z m67 -61 c-20 -65 -49 -112 -80 -126 -30 -14 -42 -5 -51 38 -5 27 -2 31 29 42 19 7 37 19 40 26 5 11 -1 12 -31 4 -20 -6 -64 -8 -99 -6 -68 4 -81 -10 -25 -27 30 -8 32 -12 26 -40 -9 -40 -12 -45 -33 -45 -35 0 -110 110 -111 162 0 15 4 15 48 1 59 -18 225 -12 268 10 16 8 30 14 31 13 2 -2 -4 -25 -12 -52z m-582 29 c-7 -2 -19 -2 -25 0 -7 3 -2 5 12 5 14 0 19 -2 13 -5z m24 -40 c-4 -3 -1 -13 6 -21 10 -13 9 -14 -3 -10 -19 6 -26 38 -9 38 7 0 9 -3 6 -7z m828 -23 c-3 -5 -14 -10 -23 -10 -15 0 -15 2 -2 10 20 13 33 13 25 0z m-71 -55 c-7 -18 -20 -19 -30 -3 -4 6 -3 8 4 4 6 -3 13 -2 17 4 9 15 15 12 9 -5z m-529 -176 l24 -74 -6 64 -6 63 27 -18 c37 -23 106 -33 178 -25 32 4 58 4 58 0 0 -3 -7 -23 -15 -42 -22 -53 -18 -58 10 -12 l25 40 0 -32 c0 -17 -14 -70 -31 -118 -16 -48 -28 -89 -26 -91 10 -10 61 119 84 210 14 55 26 102 28 104 2 2 2 -41 2 -95 -2 -87 0 -101 20 -126 42 -54 0 -109 -135 -178 -96 -48 -89 -50 -146 45 -39 65 -48 58 -16 -13 11 -24 20 -45 20 -48 0 -7 -72 48 -113 86 -21 20 -47 53 -58 73 -18 36 -18 37 2 83 11 26 23 72 26 103 5 64 11 87 19 80 3 -3 16 -39 29 -79z m-91 -221 c31 -46 63 -77 123 -118 81 -54 95 -74 71 -98 -16 -16 -25 -326 -33 -1247 -6 -623 -10 -764 -21 -782 -16 -26 -70 -43 -139 -44 -27 0 -68 -3 -90 -8 l-40 -7 55 -7 c30 -4 75 -7 100 -7 l45 0 -30 -20 c-51 -34 -174 -22 -340 35 -55 18 -124 36 -152 40 -111 14 -67 41 169 104 42 11 102 32 135 46 131 58 169 104 203 249 22 92 22 127 0 54 -43 -145 -109 -208 -290 -277 -54 -21 -198 -61 -219 -61 -17 0 -13 18 11 50 l22 30 -22 38 -21 38 34 99 c19 55 40 136 46 180 6 44 13 82 15 84 2 2 4 -27 4 -65 0 -38 4 -75 9 -82 5 -8 31 48 73 160 64 168 152 447 144 455 -2 2 -16 -31 -31 -74 -36 -102 -89 -238 -117 -299 l-22 -49 -7 45 c-22 139 -21 226 4 420 28 211 39 321 32 305 -2 -5 -22 -100 -44 -210 -22 -110 -47 -220 -54 -245 l-13 -45 -23 117 c-12 65 -20 122 -17 127 3 5 11 110 16 232 6 123 17 269 25 324 25 170 25 173 -5 60 -15 -60 -32 -136 -36 -169 -4 -34 -10 -53 -14 -45 -4 8 -22 88 -41 178 -18 90 -34 160 -36 154 -2 -5 8 -99 22 -209 14 -109 25 -232 24 -274 l-1 -75 -14 46 c-8 26 -30 112 -49 190 -20 79 -33 126 -31 104 4 -44 47 -298 72 -438 11 -59 14 -107 10 -149 -8 -68 -56 -264 -77 -317 l-14 -33 -35 127 c-43 155 -50 135 -15 -40 14 -72 25 -148 25 -170 l0 -40 -19 42 c-27 59 -60 101 -99 125 -27 17 -44 20 -89 15 -30 -3 -72 -14 -94 -25 -21 -11 -39 -16 -39 -13 0 4 21 27 46 51 50 50 89 118 141 253 47 122 37 129 -15 10 -51 -118 -91 -187 -92 -158 0 44 51 361 80 491 16 77 35 180 41 229 27 233 96 394 199 470 58 43 153 90 308 154 l117 48 25 -55 c14 -32 46 -78 76 -108 57 -56 190 -142 202 -129 4 4 3 9 -3 12 -5 2 -48 29 -95 61 -90 61 -153 132 -170 192 -9 31 -7 37 13 52 22 17 22 16 25 -13 2 -16 22 -57 46 -91z m561 11 c-10 -45 -105 -138 -175 -172 -30 -14 -48 -26 -40 -27 28 0 118 48 160 86 44 40 80 100 80 134 0 20 1 21 24 3 14 -10 52 -66 86 -125 101 -175 115 -171 21 8 -21 41 -36 74 -34 74 3 0 56 -25 118 -55 241 -118 301 -194 335 -420 5 -38 21 -178 35 -310 39 -370 65 -504 115 -588 l20 -34 -48 10 c-26 6 -60 7 -75 3 -43 -10 -130 -96 -115 -112 3 -2 31 16 63 41 64 50 90 55 155 29 42 -17 60 -39 60 -72 0 -17 -5 -18 -47 -11 -88 13 -186 -12 -259 -66 l-30 -23 -13 29 c-11 26 -10 34 15 79 15 28 52 77 81 110 61 67 58 77 -8 26 -40 -30 -80 -79 -107 -130 -8 -16 -13 -10 -32 40 -12 32 -35 115 -52 184 l-31 125 10 260 10 260 41 134 c23 74 40 136 38 139 -3 2 -21 -49 -41 -114 -57 -184 -53 -177 -56 -109 -2 53 -3 48 -11 -40 -23 -263 -90 -676 -101 -625 -3 14 -15 93 -27 175 -43 306 -49 245 -9 -98 18 -164 25 -296 13 -285 -3 4 -23 66 -44 140 -21 73 -39 127 -39 120 -1 -8 14 -86 33 -175 42 -198 45 -217 55 -392 6 -106 12 -149 26 -175 11 -19 18 -46 16 -58 -4 -38 18 -79 60 -108 43 -30 51 -49 17 -39 -83 24 -259 122 -346 193 -60 48 -57 33 7 -49 72 -91 162 -157 265 -195 34 -13 56 -23 51 -23 -6 -1 -66 -13 -134 -27 -68 -14 -194 -36 -280 -49 -128 -19 -145 -23 -96 -24 82 -1 275 23 423 54 115 24 231 32 280 19 39 -11 24 -24 -28 -24 -56 0 -310 -43 -353 -59 -16 -6 -53 -29 -84 -50 -30 -22 -109 -63 -176 -92 -115 -49 -128 -53 -224 -57 l-103 -4 0 24 c0 34 38 49 225 93 82 20 152 39 155 42 13 15 -181 -10 -287 -37 l-117 -31 -126 32 c-69 18 -149 32 -179 31 -47 0 -60 4 -99 34 -25 19 -55 36 -66 39 -12 2 -30 6 -41 8 -12 3 -6 5 13 6 18 0 86 -17 150 -38 143 -48 251 -68 339 -62 12 0 50 26 83 56 108 96 212 121 465 110 104 -4 166 -3 160 3 -15 14 -228 37 -331 35 l-92 -1 4 132 c2 118 2 123 -5 46 -14 -140 -31 -195 -66 -204 -13 -3 -30 -9 -39 -12 -14 -6 -16 34 -16 417 0 457 17 1466 26 1539 8 59 58 108 143 140 41 15 77 38 105 66 39 39 51 59 70 118 6 18 8 18 22 4 12 -12 14 -25 9 -49z m285 -1228 c0 -31 78 -335 103 -402 13 -35 27 -91 31 -124 10 -80 38 -136 89 -177 58 -47 197 -143 247 -172 l42 -23 -118 -57 c-107 -52 -120 -55 -153 -46 -20 5 -54 10 -76 10 -64 0 -85 9 -85 37 0 36 -24 76 -63 106 -34 25 -35 28 -25 66 9 35 7 45 -27 107 -33 63 -36 74 -31 124 4 30 11 127 16 215 12 209 31 366 41 359 5 -3 9 -13 9 -23z m-1274 -121 c36 -179 18 -397 -47 -573 -23 -61 -27 -87 -22 -123 6 -47 -5 -100 -37 -169 -10 -22 -21 -48 -24 -57 -4 -14 -18 -18 -68 -20 -97 -3 -102 -2 -195 37 -48 20 -121 49 -160 63 -40 15 -73 30 -73 34 0 4 15 15 32 24 18 9 69 40 113 69 44 29 113 71 153 94 90 50 106 68 132 151 57 186 140 474 151 529 7 33 16 56 20 49 3 -7 15 -56 25 -108z m-296 -155 c26 -13 50 -42 50 -60 0 -3 -15 2 -32 12 -39 21 -151 24 -169 6 -10 -10 -3 -13 37 -13 61 0 140 -35 177 -79 22 -26 27 -43 27 -84 l0 -52 -26 45 c-35 62 -72 99 -119 121 -44 20 -129 25 -171 9 -15 -6 -28 -9 -29 -8 -2 2 4 19 12 40 11 28 25 41 61 57 56 24 141 27 182 6z m1951 -76 c-64 -12 -117 -59 -193 -169 l-17 -25 0 51 c-1 40 4 56 23 77 43 47 114 75 186 75 l45 0 -44 -9z m107 -25 c15 -9 34 -26 44 -38 l16 -22 -59 4 c-77 6 -136 -17 -183 -69 -48 -52 -46 -65 3 -19 47 45 112 65 183 57 54 -7 157 -51 198 -85 l25 -21 -50 -1 c-79 -2 -103 -18 -27 -19 35 -1 93 -8 129 -18 l66 -16 -29 -15 c-43 -21 -77 -56 -124 -126 -55 -81 -79 -96 -133 -84 -47 10 -158 67 -202 103 l-30 25 55 -5 55 -6 -74 21 c-81 22 -138 58 -147 94 -3 13 2 40 10 61 19 46 82 125 99 125 7 0 18 9 25 21 15 23 66 48 100 49 13 0 36 -7 50 -16z m-2098 -50 c116 -105 116 -218 0 -276 -30 -15 -62 -26 -70 -23 -8 2 -46 -4 -85 -14 -38 -11 -61 -20 -49 -20 11 -1 44 6 73 15 29 8 55 13 57 11 6 -6 -150 -109 -213 -141 -29 -14 -64 -26 -78 -26 -24 0 -25 1 -11 16 23 22 20 90 -4 129 -28 45 -102 104 -158 125 l-46 18 50 10 c27 6 94 16 149 23 106 14 105 24 -2 17 -35 -2 -63 -3 -63 -2 0 5 148 88 202 114 48 23 78 30 128 31 l65 1 -40 13 -40 13 47 1 c41 1 53 -4 88 -35z m-1055 -123 c44 -13 97 -27 117 -32 20 -5 60 -28 89 -52 96 -78 139 -107 156 -107 14 0 13 4 -7 25 -30 32 -22 39 28 26 44 -12 107 -74 98 -96 -3 -8 0 -16 7 -18 17 -6 -29 -23 -98 -36 -33 -5 -96 -29 -140 -52 -72 -37 -89 -42 -170 -46 -83 -5 -95 -3 -140 20 -28 13 -70 31 -94 38 -36 11 -51 24 -93 83 -53 75 -61 92 -73 144 -11 54 8 35 47 -46 46 -95 76 -132 88 -112 7 12 12 12 27 -3 11 -9 50 -27 89 -40 38 -13 77 -27 87 -31 27 -13 20 10 -12 37 -17 14 -63 35 -103 47 -81 25 -114 53 -161 139 -21 38 -25 51 -14 51 19 0 75 -64 92 -103 7 -17 15 -25 19 -19 4 7 22 3 53 -13 54 -29 144 -33 208 -10 22 8 63 15 90 15 l50 2 -40 13 c-22 7 -53 16 -68 20 -16 3 -47 26 -70 50 -22 25 -47 45 -56 45 -9 0 -45 10 -81 23 -53 18 -66 26 -68 46 -3 21 -1 23 30 19 18 -3 69 -15 113 -27z m4035 -26 c0 -21 -28 -33 -100 -41 -56 -6 -69 -12 -107 -47 -38 -35 -47 -39 -78 -33 -22 4 -35 3 -35 -4 0 -5 -4 -10 -9 -10 -5 0 -22 -5 -38 -12 l-28 -11 40 -8 c22 -5 55 -11 73 -15 25 -5 32 -10 27 -23 -5 -13 -4 -14 6 -3 8 7 41 12 87 12 l74 0 -14 -22 c-11 -17 -28 -24 -64 -28 -35 -4 -57 -13 -78 -33 -35 -32 -32 -33 34 -7 28 11 64 20 80 20 22 0 42 14 85 59 31 33 69 80 85 105 16 25 32 46 34 46 2 0 11 3 20 6 10 4 16 1 16 -8 0 -23 -87 -161 -137 -216 l-48 -54 -109 -13 -108 -13 -72 35 c-39 20 -91 42 -116 48 -41 11 -45 15 -43 39 3 45 30 75 90 102 31 13 71 40 90 59 38 39 99 61 213 74 116 13 130 13 130 -4z m164 -33 c2 -4 0 -30 -6 -57 -15 -71 -124 -222 -145 -201 -2 2 12 25 31 51 55 71 83 126 91 173 6 39 17 52 29 34z m-3654 -51 c54 -28 130 -116 130 -151 0 -6 -10 -14 -22 -19 -33 -12 -114 -25 -106 -16 10 11 -17 71 -48 108 -33 40 -92 77 -123 77 -36 0 -20 9 30 18 49 9 101 2 139 -17z m3029 -5 l24 -13 -35 -12 c-41 -13 -74 -47 -112 -114 -15 -27 -34 -51 -41 -53 -13 -5 -75 21 -75 32 0 3 16 29 35 59 61 97 141 136 204 101z m-3085 -241 c-101 -18 -119 -31 -36 -27 84 5 264 -28 378 -70 46 -16 84 -31 84 -32 0 -1 -39 -1 -87 0 l-88 3 80 -10 c93 -12 225 -36 232 -43 3 -3 -2 -13 -12 -22 -9 -9 -14 -26 -11 -36 4 -17 1 -19 -19 -14 -114 29 -370 31 -449 3 -36 -12 -29 -13 80 -9 158 5 294 -14 589 -82 132 -31 319 -68 415 -83 96 -14 177 -28 179 -29 7 -6 -50 -86 -93 -128 -96 -96 -203 -160 -355 -213 l-96 -33 73 5 c99 8 157 27 233 76 73 47 197 170 249 247 l35 51 94 1 94 0 -7 -52 c-9 -69 -58 -169 -103 -213 -46 -45 -166 -91 -285 -110 -280 -44 -618 -65 -743 -45 l-50 7 65 3 65 2 -117 24 c-313 64 -651 250 -745 412 -35 59 -42 155 -18 219 49 128 194 213 360 212 l80 -1 -71 -13z m3153 -25 c120 -56 170 -132 161 -250 -13 -183 -229 -356 -596 -477 -211 -69 -332 -95 -437 -95 -179 2 -374 61 -472 144 -35 30 -35 28 7 -16 25 -27 66 -65 92 -86 l47 -38 -45 -7 c-36 -5 -51 -2 -79 15 -67 41 -128 136 -108 166 5 6 42 35 83 64 41 30 107 80 145 111 213 171 336 217 755 279 162 24 200 40 98 40 -81 0 -192 -14 -315 -40 -117 -25 -123 -25 -123 3 0 18 20 32 108 78 114 60 221 102 287 112 34 6 26 0 -50 -37 -49 -25 -88 -45 -85 -45 3 -1 45 13 94 29 86 29 175 47 266 52 l45 3 -50 17 -50 18 78 -4 c61 -4 93 -11 144 -36z m-2275 -186 c14 -7 38 -28 51 -46 14 -18 54 -46 88 -63 81 -39 91 -61 23 -50 -47 6 -378 79 -418 92 -18 5 -18 6 -2 15 28 15 96 11 165 -11 36 -11 68 -18 73 -15 14 9 9 30 -12 49 -26 24 -177 25 -233 2 -43 -18 -49 -6 -10 20 16 11 56 20 107 24 90 7 128 3 168 -17z m1443 -4 c0 -23 -4 -25 -55 -30 -67 -6 -155 -50 -260 -130 -173 -132 -448 -296 -466 -278 -3 3 1 19 9 35 19 37 40 138 33 160 -4 15 15 26 114 66 65 27 160 75 210 107 62 40 109 62 144 69 110 21 173 29 221 27 46 -1 50 -3 50 -26z m-1160 -110 c75 -65 106 -75 69 -22 -22 31 -14 35 37 22 62 -16 89 -36 89 -65 0 -21 -4 -25 -22 -21 -13 3 -50 8 -83 11 -118 12 -124 14 -145 56 -11 21 -28 43 -37 48 -15 9 -13 10 14 11 23 0 45 -11 78 -40z m582 -475 l48 -44 -195 0 c-107 0 -190 3 -184 5 52 22 244 83 261 84 12 0 43 -20 70 -45z"
       id="path134"
       style="fill:#ffffff" />
    <path
       d="M2751 4499 c-27 -29 -27 -46 0 -54 30 -10 68 28 53 52 -16 26 -30 26 -53 2z"
       id="path136"
       style="fill:#ffffff" />
    <path
       d="M2500 4081 c-28 -5 -31 -8 -17 -14 31 -12 92 -8 113 8 18 13 16 14 -21 13 -22 0 -56 -3 -75 -7z"
       id="path138"
       style="fill:#ffffff" />
    <path
       d="M2784 4076 c22 -18 102 -21 126 -6 12 8 10 10 -10 10 -14 0 -50 3 -80 6 -51 5 -54 4 -36 -10z"
       id="path140"
       style="fill:#ffffff" />
    <path
       d="M2939 3841 c-13 -11 -21 -22 -18 -25 3 -3 16 5 29 19 28 30 22 33 -11 6z"
       id="path142"
       style="fill:#ffffff" />
    <path
       d="M2590 3375 c16 -42 39 -83 51 -90 5 -4 -4 20 -21 54 -31 62 -47 81 -30 36z"
       id="path144"
       style="fill:#ffffff" />
    <path
       d="M2305 3289 c15 -79 85 -171 179 -233 70 -47 81 -46 19 0 -99 75 -159 145 -189 222 -8 21 -12 26 -9 11z"
       id="path146"
       style="fill:#ffffff" />
    <path
       d="M1902 2960 c0 -14 2 -19 5 -12 2 6 2 18 0 25 -3 6 -5 1 -5 -13z"
       id="path148"
       style="fill:#ffffff" />
    <path
       d="M1852 2770 c0 -14 2 -19 5 -12 2 6 2 18 0 25 -3 6 -5 1 -5 -13z"
       id="path150"
       style="fill:#ffffff" />
    <path
       d="M1825 2338 c8 -104 31 -257 40 -266 3 -3 3 28 0 69 -8 98 -36 289 -42 289 -3 0 -2 -42 2 -92z"
       id="path152"
       style="fill:#ffffff" />
    <path
       d="M2558 1976 c-5 -60 -8 -150 -7 -200 1 -79 2 -86 10 -52 5 22 8 112 7 200 l-3 161 -7 -109z"
       id="path154"
       style="fill:#ffffff" />
    <path
       d="M2227 1296 c-109 -78 -128 -97 -58 -60 45 24 169 124 151 123 -3 0 -44 -29 -93 -63z"
       id="path156"
       style="fill:#ffffff" />
    <path
       d="M2140 1046 c6 -6 73 -12 153 -13 105 -1 129 0 92 7 -79 13 -256 17 -245 6z"
       id="path158"
       style="fill:#ffffff" />
    <path
       d="M2934 3129 c-31 -34 -94 -66 -173 -88 -41 -11 -76 -23 -79 -26 -12 -12 51 -3 112 15 49 16 78 33 118 70 29 27 50 49 47 50 -3 0 -14 -9 -25 -21z"
       id="path160"
       style="fill:#ffffff" />
    <path
       d="M2695 2911 c-3 -5 -1 -12 5 -16 5 -3 10 1 10 9 0 18 -6 21 -15 7z"
       id="path162"
       style="fill:#ffffff" />
    <path
       d="M2778 2776 c-10 -178 -10 -787 -1 -1071 7 -197 9 -210 14 -125 9 121 8 999 0 1190 l-6 145 -7 -139z"
       id="path164"
       style="fill:#ffffff" />
    <path
       d="M3431 2684 c0 -11 3 -14 6 -6 3 7 2 16 -1 19 -3 4 -6 -2 -5 -13z"
       id="path166"
       style="fill:#ffffff" />
    <path
       d="M3398 2515 c-15 -77 -35 -194 -43 -260 -17 -131 -17 -141 -10 -133 16 15 90 479 83 516 -2 9 -15 -47 -30 -123z"
       id="path168"
       style="fill:#ffffff" />
    <path
       d="M2692 2599 c2 -6 8 -10 13 -10 5 0 11 4 13 10 2 6 -4 11 -13 11 -9 0 -15 -5 -13 -11z"
       id="path170"
       style="fill:#ffffff" />
    <path
       d="M3541 2504 c0 -11 3 -14 6 -6 3 7 2 16 -1 19 -3 4 -6 -2 -5 -13z"
       id="path172"
       style="fill:#ffffff" />
    <path
       d="M3555 2405 c9 -81 46 -309 51 -314 7 -8 4 17 -22 192 -26 170 -42 239 -29 122z"
       id="path174"
       style="fill:#ffffff" />
    <path
       d="M2665 2200 c-3 -5 -1 -10 4 -10 6 0 11 5 11 10 0 6 -2 10 -4 10 -3 0 -8 -4 -11 -10z"
       id="path176"
       style="fill:#ffffff" />
    <path
       d="M3105 1770 c12 -62 26 -112 30 -108 5 5 -24 130 -32 138 -3 3 -2 -11 2 -30z"
       id="path178"
       style="fill:#ffffff" />
    <path
       d="M2670 1731 c0 -6 5 -13 10 -16 6 -3 10 1 10 9 0 9 -4 16 -10 16 -5 0 -10 -4 -10 -9z"
       id="path180"
       style="fill:#ffffff" />
    <path
       d="M3014 1585 c24 -100 83 -261 92 -252 6 6 -63 213 -81 244 -10 18 -14 21 -11 8z"
       id="path182"
       style="fill:#ffffff" />
    <path
       d="M2675 1519 c-4 -6 -4 -13 -1 -16 3 -4 6 -1 6 6 0 8 6 11 16 7 8 -3 12 -2 9 4 -8 13 -22 13 -30 -1z"
       id="path184"
       style="fill:#ffffff" />
    <path
       d="M2666 1301 c-4 -5 -2 -12 3 -15 5 -4 12 -2 15 3 4 5 2 12 -3 15 -5 4 -12 2 -15 -3z"
       id="path186"
       style="fill:#ffffff" />
    <path
       d="M3648 1633 c7 -3 16 -2 19 1 4 3 -2 6 -13 5 -11 0 -14 -3 -6 -6z"
       id="path188"
       style="fill:#ffffff" />
    <path
       d="M3984 1411 c-53 -32 -115 -130 -113 -178 0 -10 7 4 15 31 11 36 32 65 74 108 32 32 58 58 57 58 -1 0 -16 -9 -33 -19z"
       id="path190"
       style="fill:#ffffff" />
    <path
       d="M1505 1567 c76 -20 123 -46 155 -86 35 -42 40 -29 7 19 -32 49 -77 71 -150 76 l-62 4 50 -13z"
       id="path192"
       style="fill:#ffffff" />
    <path
       d="M650 1236 c0 -2 8 -10 18 -17 15 -13 16 -12 3 4 -13 16 -21 21 -21 13z"
       id="path194"
       style="fill:#ffffff" />
    <path
       d="M1103 953 c15 -2 37 -2 50 0 12 2 0 4 -28 4 -27 0 -38 -2 -22 -4z"
       id="path196"
       style="fill:#ffffff" />
    <path
       d="M1455 719 c83 -27 228 -56 370 -73 123 -15 301 -28 294 -22 -2 2 -71 14 -154 25 -82 12 -240 38 -350 57 -110 18 -205 34 -210 33 -6 -1 17 -10 50 -20z"
       id="path198"
       style="fill:#ffffff" />
    <path
       d="M951 604 c23 -28 132 -100 207 -138 131 -66 350 -126 507 -139 l60 -5 -70 17 c-199 51 -482 156 -634 237 -46 24 -78 37 -70 28z"
       id="path200"
       style="fill:#ffffff" />
    <path
       d="M4025 955 c-39 -17 -21 -18 25 0 19 7 28 14 20 14 -8 0 -28 -6 -45 -14z"
       id="path202"
       style="fill:#ffffff" />
    <path
       d="M3529 820 c-155 -42 -344 -126 -414 -185 -27 -23 -23 -22 40 8 108 53 258 116 390 163 139 50 134 54 -16 14z"
       id="path204"
       style="fill:#ffffff" />
    <path
       d="M3780 713 c-109 -11 -348 -47 -430 -64 -101 -20 -230 -57 -230 -66 0 -2 8 -2 18 1 9 3 152 28 317 56 356 60 494 91 325 73z"
       id="path206"
       style="fill:#ffffff" />
    <path
       d="M4136 614 c-40 -22 -176 -69 -351 -120 -136 -40 -144 -44 -86 -39 141 13 370 93 456 159 26 20 18 19 -19 0z"
       id="path208"
       style="fill:#ffffff" />
  </g>
</svg>
